<svg xmlns="http://www.w3.org/2000/svg" xmlns:xlink="http://www.w3.org/1999/xlink" width="500" zoomAndPan="magnify" viewBox="0 0 375 374.999991" height="500" preserveAspectRatio="xMidYMid meet" version="1.0"><defs><clipPath id="03cf4959e0"><path d="M 9.609375 62 L 334 62 L 334 372 L 9.609375 372 Z M 9.609375 62 " clip-rule="nonzero"/></clipPath><clipPath id="5442125196"><path d="M 268 78 L 365.109375 78 L 365.109375 276 L 268 276 Z M 268 78 " clip-rule="nonzero"/></clipPath></defs><path fill="#006d77" d="M 187.410156 281.808594 C 151.636719 281.808594 119.386719 260.242188 105.699219 227.167969 C 92.007812 194.09375 99.574219 156.019531 124.871094 130.703125 C 150.167969 105.390625 188.207031 97.816406 221.253906 111.515625 C 254.304688 125.21875 275.855469 157.492188 275.855469 193.292969 C 275.796875 242.152344 236.230469 281.75 187.410156 281.808594 Z M 187.410156 115.238281 C 155.863281 115.238281 127.421875 134.253906 115.347656 163.425781 C 103.277344 192.589844 109.953125 226.167969 132.261719 248.488281 C 154.5625 270.8125 188.113281 277.492188 217.253906 265.410156 C 246.402344 253.328125 265.40625 224.863281 265.40625 193.292969 C 265.359375 150.203125 230.464844 115.285156 187.410156 115.238281 Z M 187.410156 115.238281 " fill-opacity="1" fill-rule="nonzero"/><g clip-path="url(#03cf4959e0)"><path fill="#006d77" d="M 187.410156 371.066406 C 89.351562 370.957031 9.886719 291.425781 9.777344 193.292969 C 9.59375 144.285156 29.828125 97.410156 65.609375 63.957031 C 66.675781 62.96875 68.097656 62.457031 69.546875 62.542969 C 71 62.640625 72.34375 63.335938 73.261719 64.472656 L 114.265625 115.246094 C 115.925781 117.300781 115.792969 120.269531 113.960938 122.167969 C 94.457031 142.335938 84.089844 169.636719 85.289062 197.671875 C 86.488281 225.710938 99.148438 252.019531 120.304688 270.445312 C 141.457031 288.867188 169.242188 297.78125 197.160156 295.101562 C 225.070312 292.414062 250.65625 278.371094 267.917969 256.257812 C 269.542969 254.1875 272.453125 253.652344 274.710938 255 L 330.648438 288.667969 C 333.257812 290.238281 333.980469 293.699219 332.214844 296.183594 C 298.867188 343.085938 244.929688 370.976562 187.410156 371.066406 Z M 68.738281 75.503906 C 37.519531 106.722656 20.058594 149.128906 20.226562 193.292969 C 20.210938 265.078125 65.960938 328.871094 133.921875 351.828125 C 201.882812 374.78125 276.90625 351.785156 320.359375 294.671875 L 273.214844 266.296875 C 253.699219 289.183594 225.855469 303.3125 195.878906 305.546875 C 165.894531 307.773438 136.265625 297.914062 113.589844 278.164062 C 90.910156 258.410156 77.0625 230.40625 75.132812 200.378906 C 73.195312 170.355469 83.339844 140.800781 103.296875 118.296875 Z M 68.738281 75.503906 " fill-opacity="1" fill-rule="nonzero"/></g><g clip-path="url(#5442125196)"><path fill="#006d77" d="M 341.453125 275.988281 C 340.503906 275.988281 339.574219 275.730469 338.761719 275.242188 L 282.859375 241.582031 C 280.589844 240.226562 279.691406 237.382812 280.769531 234.96875 C 295.984375 201.148438 291.5625 161.71875 269.234375 132.117188 C 267.652344 130.003906 267.890625 127.035156 269.796875 125.207031 L 316.980469 79.980469 C 318.027344 78.964844 319.453125 78.441406 320.90625 78.539062 C 322.355469 78.621094 323.703125 79.308594 324.628906 80.433594 C 350.730469 112.25 365.011719 152.132812 365.042969 193.292969 C 365.109375 221.023438 358.625 248.371094 346.117188 273.113281 C 345.464844 274.410156 344.300781 275.378906 342.90625 275.777344 C 342.433594 275.921875 341.945312 275.992188 341.453125 275.988281 Z M 292.117188 234.96875 L 339.242188 263.324219 C 349.414062 241.386719 354.652344 217.480469 354.59375 193.292969 C 354.570312 156.480469 342.441406 120.699219 320.074219 91.472656 L 280.304688 129.59375 C 301.671875 160.503906 306.109375 200.082031 292.117188 234.96875 Z M 292.117188 234.96875 " fill-opacity="1" fill-rule="nonzero"/></g><path fill="#006d77" d="M 255.414062 115.238281 C 254.207031 115.242188 253.035156 114.824219 252.105469 114.054688 C 218.253906 86.21875 170.394531 83.195312 133.3125 106.550781 C 131.078125 107.957031 128.136719 107.464844 126.476562 105.40625 L 85.425781 54.589844 C 83.511719 52.222656 84.015625 48.730469 86.515625 47.003906 C 154.097656 0.289062 244.878906 6.066406 306.003906 60.972656 C 308.269531 63.007812 308.324219 66.535156 306.128906 68.640625 L 259.027344 113.785156 C 258.058594 114.71875 256.765625 115.238281 255.414062 115.238281 Z M 187.410156 80.441406 C 211.816406 80.476562 235.558594 88.421875 255.074219 103.09375 L 294.777344 65.054688 C 238.75 18.050781 158.695312 12.953125 97.167969 52.46875 L 131.769531 95.300781 C 148.707031 85.582031 167.886719 80.460938 187.410156 80.441406 Z M 187.410156 80.441406 " fill-opacity="1" fill-rule="nonzero"/><path fill="#006d77" d="M 187.410156 241.542969 C 172.660156 241.523438 160.710938 229.5625 160.691406 214.804688 C 160.691406 207.832031 171.140625 207.832031 171.140625 214.804688 C 171.140625 221.386719 175.105469 227.328125 181.183594 229.847656 C 187.265625 232.367188 194.261719 230.972656 198.914062 226.316406 C 203.566406 221.660156 204.957031 214.65625 202.441406 208.574219 C 199.925781 202.488281 193.988281 198.519531 187.410156 198.519531 C 176.601562 198.519531 166.859375 192.007812 162.726562 182.015625 C 158.589844 172.023438 160.875 160.523438 168.515625 152.875 C 176.15625 145.226562 187.648438 142.941406 197.636719 147.078125 C 207.617188 151.21875 214.128906 160.96875 214.128906 171.785156 C 214.128906 178.753906 203.679688 178.753906 203.679688 171.785156 C 203.679688 165.199219 199.714844 159.261719 193.636719 156.742188 C 187.554688 154.222656 180.558594 155.613281 175.90625 160.269531 C 171.253906 164.925781 169.863281 171.929688 172.378906 178.015625 C 174.894531 184.097656 180.832031 188.066406 187.410156 188.066406 C 202.164062 188.066406 214.128906 200.035156 214.128906 214.804688 C 214.128906 229.570312 202.164062 241.542969 187.410156 241.542969 Z M 187.410156 241.542969 " fill-opacity="1" fill-rule="nonzero"/><path fill="#006d77" d="M 187.410156 155.5 C 184.523438 155.5 182.1875 153.160156 182.1875 150.273438 L 182.1875 143.511719 C 182.1875 136.542969 192.632812 136.542969 192.632812 143.511719 L 192.632812 150.273438 C 192.632812 153.160156 190.296875 155.5 187.410156 155.5 Z M 187.410156 155.5 " fill-opacity="1" fill-rule="nonzero"/><path fill="#006d77" d="M 187.410156 248.300781 C 184.523438 248.300781 182.1875 245.964844 182.1875 243.074219 L 182.1875 236.3125 C 182.1875 229.34375 192.632812 229.34375 192.632812 236.3125 L 192.632812 243.074219 C 192.632812 245.964844 190.296875 248.300781 187.410156 248.300781 Z M 187.410156 248.300781 " fill-opacity="1" fill-rule="nonzero"/></svg>